G04*
G04 #@! TF.GenerationSoftware,Altium Limited,Altium Designer,22.4.2 (48)*
G04*
G04 Layer_Physical_Order=2*
G04 Layer_Color=16711680*
%FSLAX44Y44*%
%MOMM*%
G71*
G04*
G04 #@! TF.SameCoordinates,BDD24D00-A3F0-4FE7-AA0F-EC7639B0A0CE*
G04*
G04*
G04 #@! TF.FilePolarity,Positive*
G04*
G01*
G75*
%ADD19C,1.4000*%
%ADD20C,1.5240*%
%ADD21C,1.0300*%
%ADD22C,1.2000*%
%ADD23C,1.2500*%
%ADD24R,1.2500X1.2500*%
%ADD25C,0.8000*%
D19*
X400050Y227330D02*
D03*
X298450D02*
D03*
X208280Y60960D02*
D03*
X309880D02*
D03*
X77470Y62230D02*
D03*
X179070D02*
D03*
D20*
Y82550D02*
D03*
X335280Y203200D02*
D03*
X332740Y60960D02*
D03*
X132080Y205740D02*
D03*
X106680D02*
D03*
X298450Y252730D02*
D03*
D21*
X239030Y240030D02*
D03*
X190230D02*
D03*
D22*
X115570Y241300D02*
D03*
X39370D02*
D03*
X38100Y172720D02*
D03*
Y96520D02*
D03*
D23*
X411480Y104140D02*
D03*
X386080D02*
D03*
X360680D02*
D03*
X335280D02*
D03*
X309880D02*
D03*
X284480D02*
D03*
X259080D02*
D03*
X233680D02*
D03*
X208280D02*
D03*
X182880D02*
D03*
X157480D02*
D03*
X132080D02*
D03*
X106680D02*
D03*
X81280D02*
D03*
Y182880D02*
D03*
X106680D02*
D03*
X132080D02*
D03*
X157480D02*
D03*
X182880D02*
D03*
X208280D02*
D03*
X233680D02*
D03*
X259080D02*
D03*
X284480D02*
D03*
X309880D02*
D03*
X335280D02*
D03*
X360680D02*
D03*
X386080D02*
D03*
D24*
X411480D02*
D03*
D25*
X288290Y153670D02*
X406146D01*
X424434Y135382D01*
X259080Y182880D02*
X288290Y153670D01*
X208280Y104140D02*
X283210Y29210D01*
X381000D02*
X424434Y72644D01*
X283210Y29210D02*
X381000D01*
X418084Y169926D02*
X438150Y149860D01*
Y45974D02*
Y149860D01*
X406400Y14224D02*
X438150Y45974D01*
X11430Y123190D02*
X38100Y96520D01*
X11430Y259334D02*
X25400Y273304D01*
X11430Y123190D02*
Y259334D01*
X205386Y62230D02*
X206656Y60960D01*
X208280D01*
X179070Y62230D02*
X205386D01*
X259941Y183741D02*
Y188821D01*
X259080Y182880D02*
X259941Y183741D01*
Y188821D02*
X298450Y227330D01*
X233680Y129540D02*
Y182880D01*
Y129540D02*
X259080Y104140D01*
X115570Y241300D02*
X135128Y260858D01*
X196342D01*
X233680Y223520D01*
Y182880D02*
Y223520D01*
X102870Y254000D02*
X115570Y241300D01*
X26670Y254000D02*
X102870D01*
X26670Y184150D02*
Y254000D01*
Y184150D02*
X38100Y172720D01*
X400050Y194310D02*
Y227330D01*
Y194310D02*
X411480Y182880D01*
X177784Y227584D02*
X190230Y240030D01*
X53086Y227584D02*
X177784D01*
X39370Y241300D02*
X53086Y227584D01*
X190230Y190230D02*
Y240030D01*
X182880Y182880D02*
X190230Y190230D01*
X205756Y273304D02*
X239030Y240030D01*
X25400Y273304D02*
X205756D01*
X424434Y72644D02*
Y135382D01*
X309880Y182880D02*
X322834Y169926D01*
X418084D01*
X125476Y14224D02*
X406400D01*
X77470Y62230D02*
X125476Y14224D01*
X302260Y60960D02*
X309880D01*
X259080Y104140D02*
X302260Y60960D01*
X179070Y62230D02*
Y82550D01*
X168910Y143510D02*
X208280Y182880D01*
X85090Y143510D02*
X168910D01*
X38100Y96520D02*
X85090Y143510D01*
X298450Y227330D02*
Y252730D01*
X106680Y182880D02*
Y205740D01*
X132080Y182880D02*
Y205740D01*
X309880Y60960D02*
X332740D01*
X335280Y182880D02*
Y203200D01*
M02*
