G04*
G04 #@! TF.GenerationSoftware,Altium Limited,Altium Designer,22.4.2 (48)*
G04*
G04 Layer_Physical_Order=1*
G04 Layer_Color=255*
%FSLAX44Y44*%
%MOMM*%
G71*
G04*
G04 #@! TF.SameCoordinates,BDD24D00-A3F0-4FE7-AA0F-EC7639B0A0CE*
G04*
G04*
G04 #@! TF.FilePolarity,Positive*
G04*
G01*
G75*
%ADD19C,1.4000*%
%ADD20C,1.5240*%
%ADD21C,1.0300*%
%ADD22C,1.2000*%
%ADD23C,1.2500*%
%ADD24R,1.2500X1.2500*%
D19*
X400050Y227330D02*
D03*
X298450D02*
D03*
X208280Y60960D02*
D03*
X309880D02*
D03*
X77470Y62230D02*
D03*
X179070D02*
D03*
D20*
Y82550D02*
D03*
X335280Y203200D02*
D03*
X332740Y60960D02*
D03*
X132080Y205740D02*
D03*
X106680D02*
D03*
X298450Y252730D02*
D03*
D21*
X239030Y240030D02*
D03*
X190230D02*
D03*
D22*
X115570Y241300D02*
D03*
X39370D02*
D03*
X38100Y172720D02*
D03*
Y96520D02*
D03*
D23*
X411480Y104140D02*
D03*
X386080D02*
D03*
X360680D02*
D03*
X335280D02*
D03*
X309880D02*
D03*
X284480D02*
D03*
X259080D02*
D03*
X233680D02*
D03*
X208280D02*
D03*
X182880D02*
D03*
X157480D02*
D03*
X132080D02*
D03*
X106680D02*
D03*
X81280D02*
D03*
Y182880D02*
D03*
X106680D02*
D03*
X132080D02*
D03*
X157480D02*
D03*
X182880D02*
D03*
X208280D02*
D03*
X233680D02*
D03*
X259080D02*
D03*
X284480D02*
D03*
X309880D02*
D03*
X335280D02*
D03*
X360680D02*
D03*
X386080D02*
D03*
D24*
X411480D02*
D03*
M02*
