G04*
G04 #@! TF.GenerationSoftware,Altium Limited,Altium Designer,22.4.2 (48)*
G04*
G04 Layer_Color=65535*
%FSLAX44Y44*%
%MOMM*%
G71*
G04*
G04 #@! TF.SameCoordinates,BDD24D00-A3F0-4FE7-AA0F-EC7639B0A0CE*
G04*
G04*
G04 #@! TF.FilePolarity,Positive*
G04*
G01*
G75*
%ADD10C,0.2540*%
%ADD11C,0.1270*%
%ADD12C,0.2000*%
G36*
X156943Y202085D02*
X155872D01*
Y203114D01*
X155858Y203100D01*
X155829Y203058D01*
X155787Y203001D01*
X155717Y202931D01*
X155632Y202846D01*
X155534Y202733D01*
X155421Y202635D01*
X155280Y202522D01*
X155125Y202409D01*
X154956Y202311D01*
X154772Y202212D01*
X154575Y202113D01*
X154349Y202043D01*
X154124Y201986D01*
X153870Y201944D01*
X153616Y201930D01*
X153518D01*
X153391Y201944D01*
X153236Y201958D01*
X153052Y201986D01*
X152855Y202029D01*
X152658Y202085D01*
X152446Y202170D01*
X152418Y202184D01*
X152362Y202212D01*
X152263Y202268D01*
X152150Y202339D01*
X152009Y202423D01*
X151882Y202522D01*
X151756Y202635D01*
X151643Y202762D01*
X151629Y202776D01*
X151600Y202832D01*
X151558Y202903D01*
X151502Y203015D01*
X151431Y203142D01*
X151375Y203297D01*
X151319Y203467D01*
X151276Y203650D01*
Y203664D01*
X151262Y203720D01*
X151248Y203805D01*
Y203918D01*
X151234Y204087D01*
X151220Y204270D01*
X151206Y204510D01*
Y204778D01*
Y209162D01*
X152404D01*
Y205229D01*
Y205215D01*
Y205186D01*
Y205144D01*
Y205074D01*
Y204919D01*
X152418Y204721D01*
Y204510D01*
X152432Y204298D01*
X152446Y204115D01*
X152474Y203960D01*
Y203946D01*
X152503Y203890D01*
X152531Y203805D01*
X152573Y203692D01*
X152644Y203579D01*
X152728Y203452D01*
X152827Y203340D01*
X152954Y203227D01*
X152968Y203213D01*
X153024Y203185D01*
X153095Y203142D01*
X153208Y203100D01*
X153334Y203044D01*
X153489Y203001D01*
X153659Y202973D01*
X153856Y202959D01*
X153955D01*
X154053Y202973D01*
X154180Y202987D01*
X154335Y203030D01*
X154504Y203072D01*
X154688Y203142D01*
X154871Y203227D01*
X154899Y203241D01*
X154956Y203283D01*
X155040Y203340D01*
X155139Y203424D01*
X155252Y203537D01*
X155364Y203664D01*
X155463Y203805D01*
X155548Y203974D01*
X155562Y204002D01*
X155576Y204059D01*
X155604Y204171D01*
X155646Y204326D01*
X155688Y204524D01*
X155717Y204764D01*
X155731Y205045D01*
X155745Y205370D01*
Y209162D01*
X156943D01*
Y202085D01*
D02*
G37*
G36*
X171040Y208358D02*
X167206Y203875D01*
X166459Y203044D01*
X166543D01*
X166600Y203058D01*
X166755Y203072D01*
X166952Y203086D01*
X167192D01*
X167445Y203100D01*
X167981Y203114D01*
X171252D01*
Y202085D01*
X164993D01*
Y203044D01*
X169489Y208231D01*
X169363D01*
X169222Y208217D01*
X169038D01*
X168827Y208203D01*
X168601D01*
X168362Y208189D01*
X165260D01*
Y209162D01*
X171040D01*
Y208358D01*
D02*
G37*
G36*
X164217D02*
X160383Y203875D01*
X159636Y203044D01*
X159720D01*
X159777Y203058D01*
X159932Y203072D01*
X160129Y203086D01*
X160369D01*
X160623Y203100D01*
X161158Y203114D01*
X164429D01*
Y202085D01*
X158170D01*
Y203044D01*
X162667Y208231D01*
X162540D01*
X162399Y208217D01*
X162215D01*
X162004Y208203D01*
X161778D01*
X161539Y208189D01*
X158438D01*
Y209162D01*
X164217D01*
Y208358D01*
D02*
G37*
G36*
X146173Y211826D02*
X146286D01*
X146540Y211798D01*
X146821Y211770D01*
X147118Y211713D01*
X147414Y211643D01*
X147681Y211544D01*
X147696D01*
X147710Y211530D01*
X147794Y211488D01*
X147921Y211417D01*
X148062Y211319D01*
X148231Y211192D01*
X148414Y211037D01*
X148584Y210839D01*
X148739Y210628D01*
X148753Y210600D01*
X148795Y210515D01*
X148866Y210402D01*
X148936Y210233D01*
X149007Y210036D01*
X149077Y209824D01*
X149119Y209585D01*
X149133Y209345D01*
Y209317D01*
Y209246D01*
X149119Y209119D01*
X149091Y208964D01*
X149049Y208781D01*
X148978Y208584D01*
X148894Y208386D01*
X148781Y208175D01*
X148767Y208147D01*
X148725Y208090D01*
X148640Y207978D01*
X148527Y207865D01*
X148386Y207724D01*
X148217Y207569D01*
X148006Y207428D01*
X147766Y207287D01*
X147780D01*
X147808Y207273D01*
X147851Y207259D01*
X147907Y207230D01*
X148076Y207174D01*
X148273Y207075D01*
X148485Y206949D01*
X148725Y206793D01*
X148936Y206610D01*
X149133Y206385D01*
X149148Y206357D01*
X149204Y206272D01*
X149289Y206145D01*
X149373Y205976D01*
X149458Y205750D01*
X149542Y205511D01*
X149599Y205229D01*
X149613Y204919D01*
Y204904D01*
Y204890D01*
Y204806D01*
X149599Y204665D01*
X149570Y204496D01*
X149542Y204298D01*
X149486Y204087D01*
X149415Y203861D01*
X149317Y203636D01*
X149303Y203608D01*
X149260Y203537D01*
X149204Y203438D01*
X149119Y203297D01*
X149007Y203156D01*
X148894Y203001D01*
X148753Y202846D01*
X148598Y202719D01*
X148584Y202705D01*
X148527Y202663D01*
X148429Y202607D01*
X148302Y202550D01*
X148147Y202466D01*
X147963Y202381D01*
X147766Y202311D01*
X147526Y202240D01*
X147498D01*
X147414Y202212D01*
X147273Y202198D01*
X147089Y202170D01*
X146864Y202141D01*
X146596Y202113D01*
X146300Y202099D01*
X145962Y202085D01*
X142240D01*
Y211840D01*
X146074D01*
X146173Y211826D01*
D02*
G37*
G36*
X90146Y210318D02*
X88947D01*
Y211685D01*
X90146D01*
Y210318D01*
D02*
G37*
G36*
X94798Y209148D02*
X94953Y209119D01*
X95136Y209063D01*
X95333Y208993D01*
X95559Y208894D01*
X95799Y208767D01*
X95362Y207668D01*
X95347Y207682D01*
X95291Y207710D01*
X95207Y207752D01*
X95094Y207794D01*
X94967Y207837D01*
X94812Y207879D01*
X94657Y207907D01*
X94502Y207921D01*
X94431D01*
X94361Y207907D01*
X94262Y207893D01*
X94163Y207865D01*
X94037Y207822D01*
X93910Y207766D01*
X93797Y207682D01*
X93783Y207668D01*
X93741Y207639D01*
X93698Y207583D01*
X93628Y207512D01*
X93557Y207414D01*
X93487Y207301D01*
X93416Y207174D01*
X93360Y207019D01*
X93346Y206991D01*
X93332Y206906D01*
X93303Y206779D01*
X93261Y206610D01*
X93219Y206399D01*
X93191Y206159D01*
X93177Y205905D01*
X93162Y205623D01*
Y201930D01*
X91964D01*
Y209007D01*
X93050D01*
Y207935D01*
X93064Y207949D01*
X93120Y208048D01*
X93191Y208175D01*
X93303Y208330D01*
X93416Y208485D01*
X93543Y208654D01*
X93670Y208795D01*
X93797Y208908D01*
X93811Y208922D01*
X93853Y208950D01*
X93938Y208993D01*
X94022Y209035D01*
X94135Y209077D01*
X94276Y209119D01*
X94417Y209148D01*
X94572Y209162D01*
X94671D01*
X94798Y209148D01*
D02*
G37*
G36*
X90146Y201930D02*
X88947D01*
Y209007D01*
X90146D01*
Y201930D01*
D02*
G37*
G36*
X84225Y211671D02*
X84465Y211657D01*
X84718Y211643D01*
X84958Y211615D01*
X85169Y211586D01*
X85198D01*
X85296Y211558D01*
X85423Y211530D01*
X85592Y211488D01*
X85776Y211417D01*
X85973Y211333D01*
X86185Y211234D01*
X86368Y211121D01*
X86396Y211107D01*
X86452Y211065D01*
X86537Y210980D01*
X86650Y210882D01*
X86777Y210755D01*
X86903Y210586D01*
X87044Y210402D01*
X87157Y210191D01*
X87171Y210163D01*
X87199Y210092D01*
X87256Y209965D01*
X87312Y209796D01*
X87354Y209599D01*
X87411Y209373D01*
X87439Y209119D01*
X87453Y208852D01*
Y208838D01*
Y208795D01*
Y208739D01*
X87439Y208640D01*
X87425Y208542D01*
X87411Y208415D01*
X87383Y208274D01*
X87354Y208119D01*
X87256Y207794D01*
X87199Y207625D01*
X87115Y207442D01*
X87016Y207259D01*
X86917Y207090D01*
X86791Y206920D01*
X86650Y206751D01*
X86636Y206737D01*
X86607Y206709D01*
X86565Y206667D01*
X86495Y206624D01*
X86410Y206554D01*
X86297Y206483D01*
X86156Y206399D01*
X86001Y206328D01*
X85818Y206244D01*
X85606Y206159D01*
X85381Y206089D01*
X85113Y206032D01*
X84831Y205976D01*
X84521Y205933D01*
X84169Y205905D01*
X83802Y205891D01*
X81307D01*
Y201930D01*
X80010D01*
Y211685D01*
X84014D01*
X84225Y211671D01*
D02*
G37*
G36*
X349315Y65959D02*
X349428D01*
X349696Y65931D01*
X349992Y65889D01*
X350302Y65818D01*
X350640Y65734D01*
X350965Y65621D01*
X350979D01*
X351007Y65607D01*
X351049Y65593D01*
X351106Y65565D01*
X351261Y65480D01*
X351458Y65381D01*
X351670Y65240D01*
X351895Y65071D01*
X352107Y64888D01*
X352304Y64662D01*
X352332Y64634D01*
X352389Y64550D01*
X352473Y64423D01*
X352586Y64240D01*
X352699Y64014D01*
X352826Y63732D01*
X352952Y63422D01*
X353051Y63070D01*
X351881Y62759D01*
Y62773D01*
X351867Y62787D01*
X351853Y62830D01*
X351839Y62886D01*
X351796Y63013D01*
X351740Y63182D01*
X351656Y63380D01*
X351557Y63563D01*
X351458Y63760D01*
X351331Y63929D01*
X351317Y63944D01*
X351275Y64000D01*
X351190Y64070D01*
X351092Y64169D01*
X350965Y64282D01*
X350796Y64395D01*
X350612Y64507D01*
X350401Y64606D01*
X350373Y64620D01*
X350302Y64648D01*
X350175Y64691D01*
X350006Y64747D01*
X349809Y64789D01*
X349583Y64832D01*
X349329Y64860D01*
X349062Y64874D01*
X348907D01*
X348836Y64860D01*
X348751D01*
X348540Y64846D01*
X348300Y64803D01*
X348033Y64761D01*
X347779Y64691D01*
X347525Y64592D01*
X347497Y64578D01*
X347412Y64550D01*
X347299Y64479D01*
X347159Y64409D01*
X346989Y64296D01*
X346806Y64183D01*
X346637Y64042D01*
X346482Y63887D01*
X346468Y63873D01*
X346411Y63817D01*
X346341Y63718D01*
X346256Y63605D01*
X346158Y63464D01*
X346059Y63295D01*
X345960Y63112D01*
X345862Y62914D01*
Y62900D01*
X345848Y62872D01*
X345833Y62830D01*
X345805Y62759D01*
X345777Y62675D01*
X345749Y62576D01*
X345707Y62463D01*
X345678Y62336D01*
X345608Y62040D01*
X345551Y61702D01*
X345509Y61350D01*
X345495Y60955D01*
Y60941D01*
Y60898D01*
Y60828D01*
X345509Y60743D01*
Y60631D01*
X345523Y60490D01*
X345537Y60349D01*
X345551Y60194D01*
X345608Y59841D01*
X345678Y59475D01*
X345791Y59108D01*
X345932Y58756D01*
Y58742D01*
X345960Y58713D01*
X345974Y58671D01*
X346017Y58615D01*
X346115Y58460D01*
X346270Y58262D01*
X346454Y58051D01*
X346679Y57839D01*
X346947Y57642D01*
X347243Y57459D01*
X347257D01*
X347285Y57445D01*
X347328Y57417D01*
X347398Y57388D01*
X347469Y57360D01*
X347567Y57332D01*
X347793Y57247D01*
X348075Y57177D01*
X348385Y57106D01*
X348723Y57050D01*
X349076Y57036D01*
X349217D01*
X349301Y57050D01*
X349386D01*
X349597Y57078D01*
X349851Y57106D01*
X350119Y57163D01*
X350415Y57247D01*
X350711Y57346D01*
X350725D01*
X350753Y57360D01*
X350782Y57374D01*
X350838Y57403D01*
X350993Y57473D01*
X351162Y57558D01*
X351359Y57656D01*
X351571Y57769D01*
X351768Y57896D01*
X351937Y58037D01*
Y59869D01*
X349062D01*
Y61025D01*
X353206D01*
Y57403D01*
X353192Y57388D01*
X353164Y57374D01*
X353107Y57332D01*
X353037Y57276D01*
X352952Y57219D01*
X352854Y57149D01*
X352727Y57064D01*
X352600Y56980D01*
X352304Y56796D01*
X351966Y56599D01*
X351613Y56416D01*
X351233Y56261D01*
X351218D01*
X351190Y56247D01*
X351134Y56232D01*
X351063Y56204D01*
X350965Y56176D01*
X350852Y56134D01*
X350725Y56106D01*
X350598Y56077D01*
X350288Y56007D01*
X349936Y55936D01*
X349555Y55894D01*
X349160Y55880D01*
X349019D01*
X348921Y55894D01*
X348794D01*
X348639Y55908D01*
X348470Y55936D01*
X348286Y55950D01*
X347878Y56035D01*
X347440Y56134D01*
X346989Y56289D01*
X346764Y56373D01*
X346538Y56486D01*
X346524Y56500D01*
X346482Y56514D01*
X346426Y56557D01*
X346341Y56599D01*
X346242Y56669D01*
X346144Y56740D01*
X345876Y56937D01*
X345594Y57191D01*
X345298Y57501D01*
X345016Y57854D01*
X344762Y58262D01*
Y58277D01*
X344734Y58319D01*
X344706Y58375D01*
X344663Y58474D01*
X344621Y58573D01*
X344579Y58713D01*
X344522Y58854D01*
X344466Y59024D01*
X344410Y59207D01*
X344353Y59418D01*
X344311Y59630D01*
X344269Y59855D01*
X344198Y60349D01*
X344170Y60870D01*
Y60884D01*
Y60941D01*
Y61011D01*
X344184Y61110D01*
Y61237D01*
X344198Y61392D01*
X344226Y61547D01*
X344240Y61730D01*
X344283Y61928D01*
X344311Y62139D01*
X344424Y62590D01*
X344565Y63055D01*
X344762Y63521D01*
X344776Y63535D01*
X344790Y63577D01*
X344818Y63633D01*
X344875Y63718D01*
X344931Y63831D01*
X345002Y63944D01*
X345199Y64211D01*
X345439Y64521D01*
X345735Y64818D01*
X346073Y65114D01*
X346270Y65240D01*
X346468Y65367D01*
X346482Y65381D01*
X346524Y65395D01*
X346581Y65424D01*
X346665Y65466D01*
X346778Y65508D01*
X346905Y65565D01*
X347046Y65621D01*
X347215Y65677D01*
X347398Y65734D01*
X347596Y65776D01*
X347807Y65833D01*
X348033Y65875D01*
X348526Y65945D01*
X348780Y65974D01*
X349231D01*
X349315Y65959D01*
D02*
G37*
G36*
X362778Y56049D02*
X361439D01*
X356336Y63704D01*
Y56049D01*
X355095D01*
Y65804D01*
X356420D01*
X361538Y58135D01*
Y65804D01*
X362778D01*
Y56049D01*
D02*
G37*
G36*
X368952Y65790D02*
X369235Y65776D01*
X369516Y65748D01*
X369798Y65706D01*
X370038Y65663D01*
X370052D01*
X370080Y65649D01*
X370123D01*
X370179Y65621D01*
X370334Y65579D01*
X370531Y65508D01*
X370757Y65410D01*
X370997Y65283D01*
X371236Y65142D01*
X371462Y64959D01*
X371476Y64944D01*
X371490Y64930D01*
X371532Y64888D01*
X371589Y64846D01*
X371730Y64705D01*
X371899Y64507D01*
X372082Y64268D01*
X372279Y63986D01*
X372463Y63661D01*
X372618Y63295D01*
Y63281D01*
X372632Y63253D01*
X372660Y63196D01*
X372674Y63112D01*
X372716Y63013D01*
X372745Y62900D01*
X372773Y62773D01*
X372815Y62618D01*
X372857Y62463D01*
X372886Y62280D01*
X372956Y61885D01*
X372998Y61448D01*
X373013Y60969D01*
Y60955D01*
Y60927D01*
Y60856D01*
Y60786D01*
X372998Y60687D01*
Y60574D01*
X372984Y60307D01*
X372942Y59996D01*
X372900Y59672D01*
X372829Y59334D01*
X372745Y58995D01*
Y58981D01*
X372730Y58953D01*
X372716Y58911D01*
X372702Y58854D01*
X372646Y58699D01*
X372561Y58502D01*
X372477Y58277D01*
X372364Y58051D01*
X372223Y57811D01*
X372082Y57586D01*
X372068Y57558D01*
X372012Y57487D01*
X371927Y57388D01*
X371814Y57262D01*
X371687Y57120D01*
X371532Y56980D01*
X371377Y56824D01*
X371194Y56698D01*
X371166Y56684D01*
X371109Y56641D01*
X371011Y56585D01*
X370870Y56514D01*
X370701Y56430D01*
X370503Y56359D01*
X370278Y56275D01*
X370024Y56204D01*
X369996D01*
X369953Y56190D01*
X369911Y56176D01*
X369770Y56162D01*
X369573Y56134D01*
X369347Y56106D01*
X369079Y56077D01*
X368783Y56063D01*
X368459Y56049D01*
X364949D01*
Y65804D01*
X368699D01*
X368952Y65790D01*
D02*
G37*
G36*
X163267Y83675D02*
X165847Y80010D01*
X164381D01*
X162915Y82195D01*
X162577Y82717D01*
X160674Y80010D01*
X159222D01*
X161801Y83675D01*
X159419Y87087D01*
X160885D01*
X161999Y85409D01*
X162013Y85395D01*
X162055Y85339D01*
X162112Y85240D01*
X162182Y85141D01*
X162253Y85014D01*
X162337Y84888D01*
X162422Y84761D01*
X162492Y84634D01*
X162506Y84648D01*
X162549Y84704D01*
X162605Y84789D01*
X162675Y84888D01*
X162760Y85014D01*
X162845Y85141D01*
X163028Y85409D01*
X164226Y87087D01*
X165678D01*
X163267Y83675D01*
D02*
G37*
G36*
X158855Y88609D02*
X155641D01*
Y80010D01*
X154344D01*
Y88609D01*
X151130D01*
Y89765D01*
X158855D01*
Y88609D01*
D02*
G37*
G36*
X358339Y201785D02*
X360919Y198120D01*
X359452D01*
X357986Y200305D01*
X357648Y200827D01*
X355745Y198120D01*
X354293D01*
X356873Y201785D01*
X354490Y205197D01*
X355956D01*
X357070Y203519D01*
X357084Y203505D01*
X357126Y203449D01*
X357183Y203350D01*
X357253Y203251D01*
X357324Y203124D01*
X357408Y202998D01*
X357493Y202871D01*
X357563Y202744D01*
X357578Y202758D01*
X357620Y202814D01*
X357676Y202899D01*
X357747Y202998D01*
X357831Y203124D01*
X357916Y203251D01*
X358099Y203519D01*
X359297Y205197D01*
X360749D01*
X358339Y201785D01*
D02*
G37*
G36*
X350078Y207861D02*
X350205D01*
X350501Y207847D01*
X350811Y207805D01*
X351149Y207762D01*
X351459Y207692D01*
X351614Y207650D01*
X351741Y207607D01*
X351755D01*
X351770Y207593D01*
X351854Y207551D01*
X351981Y207495D01*
X352136Y207396D01*
X352305Y207269D01*
X352489Y207100D01*
X352658Y206902D01*
X352827Y206677D01*
Y206663D01*
X352841Y206649D01*
X352897Y206564D01*
X352954Y206423D01*
X353038Y206240D01*
X353109Y206028D01*
X353179Y205775D01*
X353222Y205507D01*
X353236Y205211D01*
Y205197D01*
Y205168D01*
Y205112D01*
X353222Y205042D01*
Y204943D01*
X353207Y204844D01*
X353151Y204605D01*
X353066Y204323D01*
X352954Y204027D01*
X352785Y203731D01*
X352672Y203590D01*
X352559Y203449D01*
X352545Y203435D01*
X352531Y203421D01*
X352489Y203378D01*
X352432Y203336D01*
X352362Y203279D01*
X352277Y203223D01*
X352164Y203153D01*
X352052Y203068D01*
X351911Y202998D01*
X351755Y202927D01*
X351586Y202843D01*
X351403Y202772D01*
X351192Y202716D01*
X350980Y202645D01*
X350741Y202603D01*
X350487Y202561D01*
X350515Y202547D01*
X350571Y202518D01*
X350656Y202462D01*
X350769Y202405D01*
X351022Y202250D01*
X351149Y202152D01*
X351262Y202067D01*
X351290Y202039D01*
X351361Y201968D01*
X351474Y201856D01*
X351614Y201715D01*
X351770Y201517D01*
X351953Y201306D01*
X352136Y201052D01*
X352333Y200770D01*
X354011Y198120D01*
X352404D01*
X351121Y200150D01*
Y200164D01*
X351093Y200192D01*
X351065Y200235D01*
X351022Y200291D01*
X350924Y200446D01*
X350797Y200643D01*
X350642Y200855D01*
X350487Y201080D01*
X350332Y201292D01*
X350191Y201489D01*
X350177Y201503D01*
X350134Y201560D01*
X350064Y201644D01*
X349965Y201743D01*
X349754Y201954D01*
X349641Y202053D01*
X349528Y202138D01*
X349514Y202152D01*
X349486Y202166D01*
X349430Y202194D01*
X349345Y202236D01*
X349260Y202279D01*
X349162Y202321D01*
X348936Y202391D01*
X348922D01*
X348894Y202405D01*
X348837D01*
X348767Y202420D01*
X348668Y202434D01*
X348555D01*
X348400Y202448D01*
X346737D01*
Y198120D01*
X345440D01*
Y207875D01*
X349965D01*
X350078Y207861D01*
D02*
G37*
G36*
X312388Y254460D02*
X315038D01*
Y253347D01*
X312388D01*
Y250668D01*
X311260D01*
Y253347D01*
X308610D01*
Y254460D01*
X311260D01*
Y257110D01*
X312388D01*
Y254460D01*
D02*
G37*
G36*
X327373Y249089D02*
X326231D01*
X323567Y256166D01*
X324836D01*
X326358Y251923D01*
Y251909D01*
X326372Y251894D01*
X326386Y251852D01*
X326400Y251810D01*
X326443Y251669D01*
X326499Y251486D01*
X326570Y251274D01*
X326654Y251035D01*
X326725Y250767D01*
X326809Y250499D01*
X326823Y250527D01*
X326837Y250597D01*
X326880Y250710D01*
X326922Y250879D01*
X326992Y251063D01*
X327063Y251302D01*
X327162Y251556D01*
X327260Y251838D01*
X328825Y256166D01*
X330066D01*
X327373Y249089D01*
D02*
G37*
G36*
X322397Y257576D02*
X318492D01*
X317970Y254939D01*
X317985Y254953D01*
X318013Y254968D01*
X318055Y254996D01*
X318125Y255038D01*
X318210Y255080D01*
X318309Y255137D01*
X318534Y255250D01*
X318816Y255362D01*
X319126Y255461D01*
X319465Y255532D01*
X319634Y255560D01*
X319944D01*
X320029Y255546D01*
X320141Y255532D01*
X320268Y255517D01*
X320409Y255489D01*
X320564Y255447D01*
X320903Y255348D01*
X321086Y255278D01*
X321269Y255179D01*
X321452Y255080D01*
X321636Y254968D01*
X321805Y254827D01*
X321974Y254672D01*
X321988Y254657D01*
X322016Y254629D01*
X322058Y254587D01*
X322115Y254517D01*
X322185Y254418D01*
X322256Y254319D01*
X322341Y254192D01*
X322425Y254051D01*
X322495Y253896D01*
X322580Y253727D01*
X322651Y253530D01*
X322721Y253332D01*
X322777Y253121D01*
X322820Y252881D01*
X322848Y252642D01*
X322862Y252388D01*
Y252374D01*
Y252332D01*
Y252261D01*
X322848Y252162D01*
X322834Y252050D01*
X322820Y251923D01*
X322792Y251768D01*
X322763Y251612D01*
X322679Y251246D01*
X322538Y250865D01*
X322453Y250668D01*
X322341Y250485D01*
X322228Y250287D01*
X322087Y250104D01*
X322073Y250090D01*
X322044Y250048D01*
X321988Y249991D01*
X321918Y249921D01*
X321819Y249836D01*
X321706Y249723D01*
X321565Y249625D01*
X321410Y249512D01*
X321241Y249399D01*
X321044Y249301D01*
X320832Y249202D01*
X320606Y249103D01*
X320367Y249033D01*
X320099Y248976D01*
X319817Y248934D01*
X319521Y248920D01*
X319394D01*
X319296Y248934D01*
X319183Y248948D01*
X319056Y248962D01*
X318901Y248976D01*
X318746Y249019D01*
X318393Y249103D01*
X318041Y249230D01*
X317858Y249315D01*
X317674Y249413D01*
X317505Y249526D01*
X317336Y249653D01*
X317322Y249667D01*
X317294Y249681D01*
X317266Y249738D01*
X317209Y249794D01*
X317139Y249865D01*
X317068Y249949D01*
X316984Y250062D01*
X316913Y250189D01*
X316829Y250316D01*
X316744Y250471D01*
X316589Y250809D01*
X316462Y251204D01*
X316420Y251415D01*
X316392Y251641D01*
X317646Y251739D01*
Y251725D01*
Y251697D01*
X317660Y251655D01*
X317674Y251584D01*
X317717Y251429D01*
X317773Y251218D01*
X317858Y251006D01*
X317970Y250767D01*
X318111Y250555D01*
X318281Y250358D01*
X318309Y250344D01*
X318365Y250287D01*
X318478Y250217D01*
X318633Y250132D01*
X318802Y250048D01*
X319014Y249977D01*
X319253Y249921D01*
X319521Y249907D01*
X319606D01*
X319662Y249921D01*
X319831Y249935D01*
X320029Y249991D01*
X320268Y250062D01*
X320508Y250175D01*
X320762Y250344D01*
X320874Y250443D01*
X320987Y250555D01*
X321001Y250569D01*
X321015Y250583D01*
X321044Y250626D01*
X321086Y250668D01*
X321185Y250823D01*
X321297Y251021D01*
X321396Y251260D01*
X321495Y251556D01*
X321565Y251909D01*
X321593Y252092D01*
Y252289D01*
Y252303D01*
Y252332D01*
Y252388D01*
X321579Y252458D01*
Y252543D01*
X321565Y252642D01*
X321523Y252867D01*
X321452Y253135D01*
X321354Y253403D01*
X321213Y253657D01*
X321015Y253896D01*
Y253910D01*
X320987Y253924D01*
X320917Y253995D01*
X320790Y254094D01*
X320621Y254206D01*
X320395Y254305D01*
X320141Y254404D01*
X319845Y254474D01*
X319676Y254502D01*
X319408D01*
X319296Y254488D01*
X319155Y254474D01*
X318985Y254432D01*
X318816Y254390D01*
X318633Y254319D01*
X318450Y254235D01*
X318436Y254221D01*
X318379Y254192D01*
X318295Y254122D01*
X318182Y254051D01*
X318069Y253953D01*
X317956Y253826D01*
X317829Y253699D01*
X317731Y253544D01*
X316603Y253699D01*
X317547Y258717D01*
X322397D01*
Y257576D01*
D02*
G37*
%LPC*%
G36*
X145849Y210684D02*
X143537D01*
Y207752D01*
X145933D01*
X146117Y207766D01*
X146314Y207780D01*
X146511Y207794D01*
X146709Y207822D01*
X146864Y207851D01*
X146892Y207865D01*
X146948Y207879D01*
X147033Y207921D01*
X147146Y207978D01*
X147259Y208034D01*
X147385Y208119D01*
X147512Y208231D01*
X147611Y208344D01*
X147625Y208358D01*
X147653Y208400D01*
X147696Y208485D01*
X147738Y208584D01*
X147780Y208697D01*
X147822Y208838D01*
X147851Y209007D01*
X147865Y209190D01*
Y209218D01*
Y209275D01*
X147851Y209359D01*
X147837Y209472D01*
X147808Y209613D01*
X147766Y209754D01*
X147710Y209895D01*
X147625Y210036D01*
X147611Y210050D01*
X147583Y210092D01*
X147526Y210163D01*
X147456Y210233D01*
X147357Y210318D01*
X147244Y210402D01*
X147104Y210487D01*
X146948Y210543D01*
X146934D01*
X146864Y210571D01*
X146765Y210586D01*
X146610Y210614D01*
X146399Y210642D01*
X146159Y210656D01*
X145849Y210684D01*
D02*
G37*
G36*
X146103Y206596D02*
X143537D01*
Y203241D01*
X146314D01*
X146610Y203255D01*
X146737Y203269D01*
X146850Y203283D01*
X146864D01*
X146920Y203297D01*
X147005Y203312D01*
X147104Y203340D01*
X147343Y203424D01*
X147583Y203537D01*
X147597Y203551D01*
X147639Y203579D01*
X147696Y203622D01*
X147766Y203678D01*
X147837Y203763D01*
X147935Y203847D01*
X148006Y203960D01*
X148090Y204087D01*
X148104Y204101D01*
X148118Y204143D01*
X148147Y204228D01*
X148189Y204326D01*
X148231Y204439D01*
X148259Y204580D01*
X148273Y204749D01*
X148288Y204919D01*
Y204947D01*
Y205003D01*
X148273Y205116D01*
X148245Y205243D01*
X148217Y205384D01*
X148161Y205539D01*
X148090Y205694D01*
X147992Y205849D01*
X147978Y205863D01*
X147935Y205919D01*
X147879Y205990D01*
X147794Y206075D01*
X147681Y206173D01*
X147541Y206272D01*
X147385Y206357D01*
X147202Y206427D01*
X147174Y206441D01*
X147118Y206455D01*
X146991Y206483D01*
X146836Y206511D01*
X146638Y206540D01*
X146399Y206568D01*
X146103Y206596D01*
D02*
G37*
G36*
X84098Y210529D02*
X81307D01*
Y207047D01*
X83929D01*
X84028Y207061D01*
X84126D01*
X84239Y207075D01*
X84507Y207104D01*
X84803Y207160D01*
X85099Y207245D01*
X85367Y207357D01*
X85494Y207428D01*
X85592Y207512D01*
X85621Y207541D01*
X85677Y207597D01*
X85762Y207710D01*
X85860Y207851D01*
X85959Y208034D01*
X86044Y208260D01*
X86100Y208513D01*
X86128Y208809D01*
Y208823D01*
Y208838D01*
Y208908D01*
X86114Y209035D01*
X86086Y209176D01*
X86058Y209331D01*
X86001Y209514D01*
X85917Y209683D01*
X85818Y209853D01*
X85804Y209867D01*
X85762Y209923D01*
X85691Y209993D01*
X85606Y210092D01*
X85480Y210191D01*
X85339Y210275D01*
X85184Y210360D01*
X85000Y210431D01*
X84986D01*
X84930Y210445D01*
X84845Y210459D01*
X84733Y210487D01*
X84563Y210501D01*
X84352Y210515D01*
X84098Y210529D01*
D02*
G37*
G36*
X368501Y64648D02*
X366246D01*
Y57205D01*
X368558D01*
X368657Y57219D01*
X368868Y57233D01*
X369108Y57247D01*
X369361Y57276D01*
X369615Y57318D01*
X369827Y57374D01*
X369855Y57388D01*
X369925Y57403D01*
X370024Y57445D01*
X370151Y57501D01*
X370292Y57586D01*
X370433Y57670D01*
X370574Y57769D01*
X370715Y57882D01*
X370729Y57910D01*
X370785Y57966D01*
X370870Y58065D01*
X370968Y58206D01*
X371081Y58389D01*
X371208Y58601D01*
X371321Y58840D01*
X371419Y59108D01*
Y59122D01*
X371434Y59151D01*
X371448Y59193D01*
X371462Y59249D01*
X371476Y59320D01*
X371504Y59418D01*
X371532Y59517D01*
X371561Y59630D01*
X371603Y59912D01*
X371645Y60236D01*
X371673Y60602D01*
X371687Y60997D01*
Y61011D01*
Y61068D01*
Y61138D01*
X371673Y61251D01*
Y61378D01*
X371659Y61519D01*
X371645Y61688D01*
X371631Y61857D01*
X371561Y62238D01*
X371476Y62632D01*
X371349Y62999D01*
X371264Y63182D01*
X371180Y63337D01*
Y63351D01*
X371152Y63380D01*
X371124Y63422D01*
X371095Y63478D01*
X370983Y63619D01*
X370841Y63788D01*
X370658Y63972D01*
X370447Y64155D01*
X370207Y64310D01*
X369953Y64437D01*
X369925Y64451D01*
X369855Y64465D01*
X369728Y64507D01*
X369545Y64550D01*
X369319Y64578D01*
X369037Y64620D01*
X368868Y64634D01*
X368685D01*
X368501Y64648D01*
D02*
G37*
G36*
X349810Y206790D02*
X346737D01*
Y203561D01*
X349641D01*
X349810Y203575D01*
X350007Y203590D01*
X350233Y203604D01*
X350458Y203632D01*
X350684Y203674D01*
X350881Y203731D01*
X350910Y203745D01*
X350966Y203773D01*
X351051Y203815D01*
X351163Y203872D01*
X351290Y203956D01*
X351417Y204055D01*
X351544Y204182D01*
X351643Y204323D01*
X351657Y204337D01*
X351685Y204393D01*
X351727Y204478D01*
X351784Y204590D01*
X351826Y204717D01*
X351868Y204858D01*
X351896Y205028D01*
X351911Y205197D01*
Y205211D01*
Y205225D01*
X351896Y205310D01*
X351882Y205436D01*
X351854Y205606D01*
X351784Y205775D01*
X351699Y205972D01*
X351572Y206155D01*
X351403Y206339D01*
X351375Y206353D01*
X351304Y206409D01*
X351192Y206479D01*
X351008Y206564D01*
X350797Y206649D01*
X350515Y206719D01*
X350191Y206776D01*
X349810Y206790D01*
D02*
G37*
%LPD*%
D10*
X420370Y156273D02*
G03*
X420370Y130747I0J-12763D01*
G01*
X0Y0D02*
X450850D01*
X0Y287020D02*
X450850D01*
Y0D02*
Y287020D01*
X0Y0D02*
Y287020D01*
X73660Y97790D02*
X417830D01*
X72390Y190500D02*
X416560D01*
X247654Y55883D02*
Y71118D01*
X255272D01*
X257811Y68578D01*
Y63500D01*
X255272Y60961D01*
X247654D01*
X252733D02*
X257811Y55883D01*
X270507D02*
Y71118D01*
X262889Y63500D01*
X273046D01*
X137156Y68577D02*
Y53342D01*
X129538D01*
X126999Y55882D01*
Y60960D01*
X129538Y63499D01*
X137156D01*
X132078D02*
X126999Y68577D01*
X121921Y55882D02*
X119382Y53342D01*
X114303D01*
X111764Y55882D01*
Y58421D01*
X114303Y60960D01*
X116842D01*
X114303D01*
X111764Y63499D01*
Y66038D01*
X114303Y68577D01*
X119382D01*
X121921Y66038D01*
X336554Y219713D02*
Y234947D01*
X344172D01*
X346711Y232408D01*
Y227330D01*
X344172Y224791D01*
X336554D01*
X341632D02*
X346711Y219713D01*
X361946D02*
X351789D01*
X361946Y229869D01*
Y232408D01*
X359407Y234947D01*
X354328D01*
X351789Y232408D01*
X191777Y257808D02*
X189238Y260347D01*
X184160D01*
X181621Y257808D01*
Y247651D01*
X184160Y245112D01*
X189238D01*
X191777Y247651D01*
X196856Y255268D02*
Y245112D01*
Y250190D01*
X199395Y252729D01*
X201934Y255268D01*
X204473D01*
X212091D02*
Y247651D01*
X214630Y245112D01*
X222248D01*
Y242572D01*
X219708Y240033D01*
X217169D01*
X222248Y245112D02*
Y255268D01*
X227326Y245112D02*
X234943D01*
X237483Y247651D01*
X234943Y250190D01*
X229865D01*
X227326Y252729D01*
X229865Y255268D01*
X237483D01*
X245100Y257808D02*
Y255268D01*
X242561D01*
X247639D01*
X245100D01*
Y247651D01*
X247639Y245112D01*
X73661Y251458D02*
X71122Y253997D01*
X66043D01*
X63504Y251458D01*
Y241302D01*
X66043Y238762D01*
X71122D01*
X73661Y241302D01*
X86357Y238762D02*
Y253997D01*
X78739Y246380D01*
X88896D01*
X34291Y142238D02*
X31752Y144777D01*
X26673D01*
X24134Y142238D01*
Y132082D01*
X26673Y129543D01*
X31752D01*
X34291Y132082D01*
X39369Y142238D02*
X41908Y144777D01*
X46987D01*
X49526Y142238D01*
Y139699D01*
X46987Y137160D01*
X44447D01*
X46987D01*
X49526Y134621D01*
Y132082D01*
X46987Y129543D01*
X41908D01*
X39369Y132082D01*
X199404Y139702D02*
Y149858D01*
X204482Y154937D01*
X209561Y149858D01*
Y139702D01*
Y147319D01*
X199404D01*
X214639Y154937D02*
X224796D01*
X219717D01*
Y139702D01*
X229874D02*
Y154937D01*
X234953Y149858D01*
X240031Y154937D01*
Y139702D01*
X252727D02*
X247648D01*
X245109Y142241D01*
Y147319D01*
X247648Y149858D01*
X252727D01*
X255266Y147319D01*
Y144780D01*
X245109D01*
X265423Y134623D02*
X267962D01*
X270501Y137163D01*
Y149858D01*
X262883D01*
X260344Y147319D01*
Y142241D01*
X262883Y139702D01*
X270501D01*
X278118Y149858D02*
X283197D01*
X285736Y147319D01*
Y139702D01*
X278118D01*
X275579Y142241D01*
X278118Y144780D01*
X285736D01*
D11*
X271380Y250154D02*
G03*
X258656Y263330I-12950J226D01*
G01*
X170604D02*
G03*
X157880Y250154I226J-12950D01*
G01*
Y229906D02*
G03*
X170604Y216730I12950J-226D01*
G01*
X258656D02*
G03*
X271380Y229906I-226J12950D01*
G01*
X170580Y263330D02*
X258680D01*
X157880Y229930D02*
Y250130D01*
X170580Y216730D02*
X258680D01*
X271380Y229930D02*
Y250130D01*
X71830Y107315D02*
Y179705D01*
X420930Y107315D02*
Y179705D01*
D12*
X412480Y194510D02*
G03*
X412480Y194510I-1000J0D01*
G01*
X379730Y217170D02*
Y237490D01*
X318770Y217170D02*
X379730D01*
X318770D02*
Y237490D01*
X379730D01*
Y227330D02*
X389890D01*
X308610D02*
X318770D01*
X218440Y60960D02*
X228600D01*
X289560D02*
X299720D01*
X228600Y71120D02*
X289560D01*
X228600Y50800D02*
Y71120D01*
Y50800D02*
X289560D01*
Y71120D01*
X20320Y222250D02*
X134620D01*
Y260350D01*
X20320D02*
X134620D01*
X20320Y222250D02*
Y260350D01*
X57150Y77470D02*
Y191770D01*
X19050D02*
X57150D01*
X19050Y77470D02*
Y191770D01*
Y77470D02*
X57150D01*
X87630Y62230D02*
X97790D01*
X158750D02*
X168910D01*
X97790Y72390D02*
X158750D01*
X97790Y52070D02*
Y72390D01*
Y52070D02*
X158750D01*
Y72390D01*
M02*
