G04*
G04 #@! TF.GenerationSoftware,Altium Limited,Altium Designer,22.4.2 (48)*
G04*
G04 Layer_Color=8388736*
%FSLAX44Y44*%
%MOMM*%
G71*
G04*
G04 #@! TF.SameCoordinates,BDD24D00-A3F0-4FE7-AA0F-EC7639B0A0CE*
G04*
G04*
G04 #@! TF.FilePolarity,Negative*
G04*
G01*
G75*
%ADD13C,1.6032*%
%ADD14C,1.7272*%
%ADD15C,1.2332*%
%ADD16C,1.4032*%
%ADD17C,1.4532*%
%ADD18R,1.4532X1.4532*%
D13*
X400050Y227330D02*
D03*
X298450D02*
D03*
X208280Y60960D02*
D03*
X309880D02*
D03*
X77470Y62230D02*
D03*
X179070D02*
D03*
D14*
Y82550D02*
D03*
X335280Y203200D02*
D03*
X332740Y60960D02*
D03*
X132080Y205740D02*
D03*
X106680D02*
D03*
X298450Y252730D02*
D03*
D15*
X239030Y240030D02*
D03*
X190230D02*
D03*
D16*
X115570Y241300D02*
D03*
X39370D02*
D03*
X38100Y172720D02*
D03*
Y96520D02*
D03*
D17*
X411480Y104140D02*
D03*
X386080D02*
D03*
X360680D02*
D03*
X335280D02*
D03*
X309880D02*
D03*
X284480D02*
D03*
X259080D02*
D03*
X233680D02*
D03*
X208280D02*
D03*
X182880D02*
D03*
X157480D02*
D03*
X132080D02*
D03*
X106680D02*
D03*
X81280D02*
D03*
Y182880D02*
D03*
X106680D02*
D03*
X132080D02*
D03*
X157480D02*
D03*
X182880D02*
D03*
X208280D02*
D03*
X233680D02*
D03*
X259080D02*
D03*
X284480D02*
D03*
X309880D02*
D03*
X335280D02*
D03*
X360680D02*
D03*
X386080D02*
D03*
D18*
X411480D02*
D03*
M02*
